<?xml version="1.0" encoding="UTF-8" standalone="no"?>
<!DOCTYPE svg PUBLIC "-//W3C//DTD SVG 1.1//EN"
 "http://www.w3.org/Graphics/SVG/1.1/DTD/svg11.dtd">
<!-- Generated by graphviz version 7.0.2 (20221119.0110)
 -->
<!-- Title: Graph_сoloring Pages: 1 -->
<svg width="120pt" height="392pt"
 viewBox="0.00 0.00 120.00 392.00" xmlns="http://www.w3.org/2000/svg" xmlns:xlink="http://www.w3.org/1999/xlink">
<g id="graph0" class="graph" transform="scale(1 1) rotate(0) translate(4 388)">
<title>Graph_сoloring</title>
<polygon fill="white" stroke="none" points="-4,4 -4,-388 116,-388 116,4 -4,4"/>
<!-- 0 -->
<g id="node1" class="node">
<title>0</title>
<ellipse fill="blue" stroke="blue" cx="76" cy="-360" rx="24" ry="24"/>
<text text-anchor="middle" x="76" y="-356.3" font-family="Times New Roman,serif" font-size="14.00">0</text>
</g>
<!-- 1 -->
<g id="node2" class="node">
<title>1</title>
<ellipse fill="yellow" stroke="yellow" cx="24" cy="-276" rx="24" ry="24"/>
<text text-anchor="middle" x="24" y="-272.3" font-family="Times New Roman,serif" font-size="14.00">1</text>
</g>
<!-- 0&#45;&#45;1 -->
<g id="edge1" class="edge">
<title>0&#45;&#45;1</title>
<path fill="none" stroke="black" d="M63.41,-339.15C55.3,-326.35 44.78,-309.77 36.65,-296.95"/>
</g>
<!-- 2 -->
<g id="node3" class="node">
<title>2</title>
<ellipse fill="green" stroke="green" cx="62" cy="-192" rx="24" ry="24"/>
<text text-anchor="middle" x="62" y="-188.3" font-family="Times New Roman,serif" font-size="14.00">2</text>
</g>
<!-- 0&#45;&#45;2 -->
<g id="edge2" class="edge">
<title>0&#45;&#45;2</title>
<path fill="none" stroke="black" d="M74.05,-335.92C71.39,-304.29 66.62,-247.82 63.95,-216.15"/>
</g>
<!-- 4 -->
<g id="node5" class="node">
<title>4</title>
<ellipse fill="yellow" stroke="yellow" cx="88" cy="-24" rx="24" ry="24"/>
<text text-anchor="middle" x="88" y="-20.3" font-family="Times New Roman,serif" font-size="14.00">4</text>
</g>
<!-- 0&#45;&#45;4 -->
<g id="edge3" class="edge">
<title>0&#45;&#45;4</title>
<path fill="none" stroke="black" d="M79.96,-336.31C84.65,-308.18 92.17,-258.73 95,-216 98.87,-157.46 98.46,-142.56 95,-84 94.3,-72.16 92.82,-59.05 91.39,-48.2"/>
</g>
<!-- 1&#45;&#45;2 -->
<g id="edge4" class="edge">
<title>1&#45;&#45;2</title>
<path fill="none" stroke="black" d="M33.79,-253.88C39.42,-241.73 46.47,-226.51 52.12,-214.33"/>
</g>
<!-- 3 -->
<g id="node4" class="node">
<title>3</title>
<ellipse fill="blue" stroke="blue" cx="62" cy="-108" rx="24" ry="24"/>
<text text-anchor="middle" x="62" y="-104.3" font-family="Times New Roman,serif" font-size="14.00">3</text>
</g>
<!-- 2&#45;&#45;3 -->
<g id="edge5" class="edge">
<title>2&#45;&#45;3</title>
<path fill="none" stroke="black" d="M62,-167.72C62,-156.64 62,-143.42 62,-132.34"/>
</g>
<!-- 3&#45;&#45;4 -->
<g id="edge6" class="edge">
<title>3&#45;&#45;4</title>
<path fill="none" stroke="black" d="M69.1,-84.59C72.77,-73.02 77.24,-58.95 80.9,-47.38"/>
</g>
</g>
</svg>
