<?xml version="1.0" encoding="UTF-8" standalone="no"?>
<!DOCTYPE svg PUBLIC "-//W3C//DTD SVG 1.1//EN"
 "http://www.w3.org/Graphics/SVG/1.1/DTD/svg11.dtd">
<!-- Generated by graphviz version 7.0.2 (20221119.0110)
 -->
<!-- Title: Graph_сoloring Pages: 1 -->
<svg width="143pt" height="308pt"
 viewBox="0.00 0.00 143.00 308.00" xmlns="http://www.w3.org/2000/svg" xmlns:xlink="http://www.w3.org/1999/xlink">
<g id="graph0" class="graph" transform="scale(1 1) rotate(0) translate(4 304)">
<title>Graph_сoloring</title>
<polygon fill="white" stroke="none" points="-4,4 -4,-304 139,-304 139,4 -4,4"/>
<!-- 0 -->
<g id="node1" class="node">
<title>0</title>
<ellipse fill="blue" stroke="blue" cx="76" cy="-276" rx="24" ry="24"/>
<text text-anchor="middle" x="76" y="-272.3" font-family="Times New Roman,serif" font-size="14.00">0</text>
</g>
<!-- 1 -->
<g id="node2" class="node">
<title>1</title>
<ellipse fill="yellow" stroke="yellow" cx="24" cy="-192" rx="24" ry="24"/>
<text text-anchor="middle" x="24" y="-188.3" font-family="Times New Roman,serif" font-size="14.00">1</text>
</g>
<!-- 0&#45;&#45;1 -->
<g id="edge1" class="edge">
<title>0&#45;&#45;1</title>
<path fill="none" stroke="black" d="M63.41,-255.15C55.3,-242.35 44.78,-225.77 36.65,-212.95"/>
</g>
<!-- 2 -->
<g id="node3" class="node">
<title>2</title>
<ellipse fill="green" stroke="green" cx="69" cy="-108" rx="24" ry="24"/>
<text text-anchor="middle" x="69" y="-104.3" font-family="Times New Roman,serif" font-size="14.00">2</text>
</g>
<!-- 0&#45;&#45;2 -->
<g id="edge2" class="edge">
<title>0&#45;&#45;2</title>
<path fill="none" stroke="black" d="M75.01,-251.57C73.68,-219.93 71.31,-163.89 69.98,-132.31"/>
</g>
<!-- 3 -->
<g id="node4" class="node">
<title>3</title>
<ellipse fill="yellow" stroke="yellow" cx="111" cy="-24" rx="24" ry="24"/>
<text text-anchor="middle" x="111" y="-20.3" font-family="Times New Roman,serif" font-size="14.00">3</text>
</g>
<!-- 0&#45;&#45;3 -->
<g id="edge3" class="edge">
<title>0&#45;&#45;3</title>
<path fill="none" stroke="black" d="M80.82,-252.32C86.63,-224.21 96.33,-174.77 102,-132 105.8,-103.36 108.3,-70.17 109.68,-48.45"/>
</g>
<!-- 1&#45;&#45;2 -->
<g id="edge4" class="edge">
<title>1&#45;&#45;2</title>
<path fill="none" stroke="black" d="M35.36,-170.31C42.18,-157.88 50.83,-142.11 57.65,-129.69"/>
</g>
<!-- 4 -->
<g id="node5" class="node">
<title>4</title>
<ellipse fill="blue" stroke="blue" cx="36" cy="-24" rx="24" ry="24"/>
<text text-anchor="middle" x="36" y="-20.3" font-family="Times New Roman,serif" font-size="14.00">4</text>
</g>
<!-- 1&#45;&#45;4 -->
<g id="edge5" class="edge">
<title>1&#45;&#45;4</title>
<path fill="none" stroke="black" d="M25.69,-167.57C27.98,-135.93 32.03,-79.89 34.31,-48.31"/>
</g>
<!-- 2&#45;&#45;3 -->
<g id="edge6" class="edge">
<title>2&#45;&#45;3</title>
<path fill="none" stroke="black" d="M79.6,-86.31C85.92,-73.97 93.92,-58.36 100.26,-45.97"/>
</g>
<!-- 2&#45;&#45;4 -->
<g id="edge7" class="edge">
<title>2&#45;&#45;4</title>
<path fill="none" stroke="black" d="M60.33,-85.46C55.52,-73.5 49.55,-58.67 44.73,-46.69"/>
</g>
</g>
</svg>
